ffmpeg started on 2025-06-04 at 20:19:17
Report written to "D:\Convert\FFMetrics\reports\ssim_report-6.txt"
Log level: 32
Command line:
ffmpeg -hide_banner -nostdin -i "G:\\\xc0\xed\xe8\xec\xe5\\\xce\xed\xe3\xee\xe8\xed\xe3\xe8\\!_36_\xce\xf1\xe5\xed\xfc_2024\\DreamCast\\\xc3\xf0\xe8\xe1\xed\xee\xe9 \xf9\xe5\xed\xee\xea\\[DC] Kinoko Inu - 09_Telegram_HEVC.mkv" -i "G:\\\xc0\xed\xe8\xec\xe5\\\xce\xed\xe3\xee\xe8\xed\xe3\xe8\\!_36_\xce\xf1\xe5\xed\xfc_2024\\DreamCast\\\xc3\xf0\xe8\xe1\xed\xee\xe9 \xf9\xe5\xed\xee\xea\\[DC] Kinoko Inu - 09_Telegram.mp4" -lavfi "[0:v]settb=AVTB,setpts=PTS-STARTPTS,format=pix_fmts=yuv420p10,fps=24000/1001,scale=1920:1080:flags=bicubic[main];[1:v]settb=AVTB,setpts=PTS-STARTPTS,format=pix_fmts=yuv420p,fps=24000/1001,scale=1920:1080:flags=bicubic[ref];[main][ref]ssim=eof_action=endall:stats_file='D\\:/Convert/FFMetrics/logs/ssim_logfile-6.txt'" -f null -
Input #0, matroska,webm, from 'G:\Аниме\Онгоинги\!_36_Осень_2024\DreamCast\Грибной щенок\[DC] Kinoko Inu - 09_Telegram_HEVC.mkv':
  Metadata:
    COMPATIBLE_BRANDS: isomiso2avc1mp41
    MAJOR_BRAND     : isom
    MINOR_VERSION   : 512
    ENCODER         : Lavf61.7.100
  Duration: 00:23:51.72, start: -0.021000, bitrate: 788 kb/s
  Stream #0:0: Video: hevc (Main 10), yuv420p10le(tv, bt709, progressive), 1920x1080 [SAR 1:1 DAR 16:9], 23.98 fps, 23.98 tbr, 1k tbn (default)
      Metadata:
        HANDLER_NAME    : VideoHandler
        VENDOR_ID       : [0][0][0][0]
        ENCODER         : Lavc61.19.100 libx265
        BPS             : 591513
        DURATION        : 00:23:51.596708333
        NUMBER_OF_FRAMES: 34324
        NUMBER_OF_BYTES : 105851102
        _STATISTICS_WRITING_APP: mkvpropedit v66.0.0 ('Josie') 64-bit
        _STATISTICS_WRITING_DATE_UTC: 2025-05-30 10:53:46
        _STATISTICS_TAGS: BPS DURATION NUMBER_OF_FRAMES NUMBER_OF_BYTES
  Stream #0:1: Audio: aac (LC), 48000 Hz, stereo, fltp (default)
      Metadata:
        HANDLER_NAME    : SoundHandler
        VENDOR_ID       : [0][0][0][0]
        ENCODER         : Lavc61.19.100 aac
        BPS             : 192990
        DURATION        : 00:23:51.722000000
        NUMBER_OF_FRAMES: 67113
        NUMBER_OF_BYTES : 34538618
        _STATISTICS_WRITING_APP: mkvpropedit v66.0.0 ('Josie') 64-bit
        _STATISTICS_WRITING_DATE_UTC: 2025-05-30 10:53:46
        _STATISTICS_TAGS: BPS DURATION NUMBER_OF_FRAMES NUMBER_OF_BYTES
Input #1, mov,mp4,m4a,3gp,3g2,mj2, from 'G:\Аниме\Онгоинги\!_36_Осень_2024\DreamCast\Грибной щенок\[DC] Kinoko Inu - 09_Telegram.mp4':
  Metadata:
    major_brand     : isom
    minor_version   : 512
    compatible_brands: isomiso2avc1mp41
    encoder         : Lavf61.1.100
  Duration: 00:23:51.66, start: 0.000000, bitrate: 3727 kb/s
  Stream #1:0[0x1](und): Video: h264 (High) (avc1 / 0x31637661), yuv420p(tv, bt709, progressive), 1920x1080 [SAR 1:1 DAR 16:9], 3579 kb/s, 23.98 fps, 23.98 tbr, 24k tbn (default)
      Metadata:
        handler_name    : VideoHandler
        vendor_id       : [0][0][0][0]
        encoder         : Lavc61.3.100 h264_qsv
  Stream #1:1[0x2](und): Audio: aac (HE-AACv2) (mp4a / 0x6134706D), 48000 Hz, stereo, fltp, 144 kb/s (default)
      Metadata:
        handler_name    : SoundHandler
        vendor_id       : [0][0][0][0]
Stream mapping:
  Stream #0:0 (hevc) -> settb:default
  Stream #1:0 (h264) -> settb:default
  ssim:default -> Stream #0:0 (wrapped_avframe)
  Stream #0:1 -> #0:1 (aac (native) -> pcm_s16le (native))
Output #0, null, to 'pipe:':
  Metadata:
    COMPATIBLE_BRANDS: isomiso2avc1mp41
    MAJOR_BRAND     : isom
    MINOR_VERSION   : 512
    encoder         : Lavf61.7.100
  Stream #0:0: Video: wrapped_avframe, yuv420p10le(tv, bt709, progressive), 1920x1080 [SAR 1:1 DAR 16:9], q=2-31, 200 kb/s, 23.98 fps, 23.98 tbn
      Metadata:
        encoder         : Lavc61.19.100 wrapped_avframe
  Stream #0:1: Audio: pcm_s16le, 48000 Hz, stereo, s16, 1536 kb/s (default)
      Metadata:
        HANDLER_NAME    : SoundHandler
        VENDOR_ID       : [0][0][0][0]
        _STATISTICS_TAGS: BPS DURATION NUMBER_OF_FRAMES NUMBER_OF_BYTES
        BPS             : 192990
        DURATION        : 00:23:51.722000000
        NUMBER_OF_FRAMES: 67113
        NUMBER_OF_BYTES : 34538618
        _STATISTICS_WRITING_APP: mkvpropedit v66.0.0 ('Josie') 64-bit
        _STATISTICS_WRITING_DATE_UTC: 2025-05-30 10:53:46
        encoder         : Lavc61.19.100 pcm_s16le
frame=  163 fps=0.0 q=-0.0 size=N/A time=00:00:06.79 bitrate=N/A speed=13.3x    frame=  364 fps=357 q=-0.0 size=N/A time=00:00:15.18 bitrate=N/A speed=14.9x    frame=  593 fps=384 q=-0.0 size=N/A time=00:00:24.73 bitrate=N/A speed=  16x    frame=  814 fps=396 q=-0.0 size=N/A time=00:00:33.95 bitrate=N/A speed=16.5x    frame= 1073 fps=417 q=-0.0 size=N/A time=00:00:44.75 bitrate=N/A speed=17.4x    frame= 1325 fps=430 q=-0.0 size=N/A time=00:00:55.26 bitrate=N/A speed=17.9x    frame= 1584 fps=439 q=-0.0 size=N/A time=00:01:06.06 bitrate=N/A speed=18.3x    frame= 1860 fps=452 q=-0.0 size=N/A time=00:01:17.57 bitrate=N/A speed=18.9x    frame= 2122 fps=458 q=-0.0 size=N/A time=00:01:28.50 bitrate=N/A speed=19.1x    frame= 2348 fps=455 q=-0.0 size=N/A time=00:01:37.93 bitrate=N/A speed=  19x    frame= 2580 fps=455 q=-0.0 size=N/A time=00:01:47.60 bitrate=N/A speed=  19x    frame= 2768 fps=447 q=-0.0 size=N/A time=00:01:55.44 bitrate=N/A speed=18.6x    frame= 3011 fps=450 q=-0.0 size=N/A time=00:02:05.58 bitrate=N/A speed=18.8x    frame= 3207 fps=444 q=-0.0 size=N/A time=00:02:13.75 bitrate=N/A speed=18.5x    frame= 3431 fps=444 q=-0.0 size=N/A time=00:02:23.10 bitrate=N/A speed=18.5x    frame= 3645 fps=442 q=-0.0 size=N/A time=00:02:32.02 bitrate=N/A speed=18.4x    frame= 3880 fps=443 q=-0.0 size=N/A time=00:02:41.82 bitrate=N/A speed=18.5x    frame= 4108 fps=443 q=-0.0 size=N/A time=00:02:51.33 bitrate=N/A speed=18.5x    frame= 4377 fps=447 q=-0.0 size=N/A time=00:03:02.55 bitrate=N/A speed=18.6x    frame= 4640 fps=450 q=-0.0 size=N/A time=00:03:13.52 bitrate=N/A speed=18.8x    frame= 4895 fps=452 q=-0.0 size=N/A time=00:03:24.16 bitrate=N/A speed=18.9x    frame= 5159 fps=455 q=-0.0 size=N/A time=00:03:35.17 bitrate=N/A speed=  19x    frame= 5413 fps=457 q=-0.0 size=N/A time=00:03:45.76 bitrate=N/A speed=19.1x    frame= 5665 fps=458 q=-0.0 size=N/A time=00:03:56.27 bitrate=N/A speed=19.1x    frame= 5898 fps=458 q=-0.0 size=N/A time=00:04:05.99 bitrate=N/A speed=19.1x    frame= 6143 fps=459 q=-0.0 size=N/A time=00:04:16.21 bitrate=N/A speed=19.1x    frame= 6391 fps=459 q=-0.0 size=N/A time=00:04:26.55 bitrate=N/A speed=19.2x    frame= 6621 fps=459 q=-0.0 size=N/A time=00:04:36.15 bitrate=N/A speed=19.1x    frame= 6877 fps=460 q=-0.0 size=N/A time=00:04:46.82 bitrate=N/A speed=19.2x    frame= 7140 fps=462 q=-0.0 size=N/A time=00:04:57.79 bitrate=N/A speed=19.3x    frame= 7397 fps=463 q=-0.0 size=N/A time=00:05:08.51 bitrate=N/A speed=19.3x    frame= 7624 fps=462 q=-0.0 size=N/A time=00:05:17.98 bitrate=N/A speed=19.3x    frame= 7878 fps=463 q=-0.0 size=N/A time=00:05:28.57 bitrate=N/A speed=19.3x    frame= 8132 fps=464 q=-0.0 size=N/A time=00:05:39.17 bitrate=N/A speed=19.4x    frame= 8403 fps=466 q=-0.0 size=N/A time=00:05:50.47 bitrate=N/A speed=19.4x    frame= 8663 fps=467 q=-0.0 size=N/A time=00:06:01.31 bitrate=N/A speed=19.5x    frame= 8927 fps=468 q=-0.0 size=N/A time=00:06:12.33 bitrate=N/A speed=19.5x    frame= 9201 fps=470 q=-0.0 size=N/A time=00:06:23.75 bitrate=N/A speed=19.6x    frame= 9455 fps=470 q=-0.0 size=N/A time=00:06:34.35 bitrate=N/A speed=19.6x    frame= 9728 fps=472 q=-0.0 size=N/A time=00:06:45.73 bitrate=N/A speed=19.7x    frame= 9990 fps=473 q=-0.0 size=N/A time=00:06:56.66 bitrate=N/A speed=19.7x    frame=10246 fps=473 q=-0.0 size=N/A time=00:07:07.34 bitrate=N/A speed=19.7x    frame=10490 fps=473 q=-0.0 size=N/A time=00:07:17.52 bitrate=N/A speed=19.7x    frame=10750 fps=474 q=-0.0 size=N/A time=00:07:28.36 bitrate=N/A speed=19.8x    frame=11013 fps=475 q=-0.0 size=N/A time=00:07:39.33 bitrate=N/A speed=19.8x    frame=11282 fps=476 q=-0.0 size=N/A time=00:07:50.55 bitrate=N/A speed=19.8x    frame=11552 fps=477 q=-0.0 size=N/A time=00:08:01.81 bitrate=N/A speed=19.9x    frame=11828 fps=478 q=-0.0 size=N/A time=00:08:13.32 bitrate=N/A speed=19.9x    frame=12098 fps=478 q=-0.0 size=N/A time=00:08:24.58 bitrate=N/A speed=  20x    frame=12372 fps=480 q=-0.0 size=N/A time=00:08:36.01 bitrate=N/A speed=  20x    frame=12634 fps=480 q=-0.0 size=N/A time=00:08:46.94 bitrate=N/A speed=  20x    frame=12914 fps=481 q=-0.0 size=N/A time=00:08:58.62 bitrate=N/A speed=20.1x    frame=13179 fps=482 q=-0.0 size=N/A time=00:09:09.67 bitrate=N/A speed=20.1x    frame=13420 fps=482 q=-0.0 size=N/A time=00:09:19.72 bitrate=N/A speed=20.1x    frame=13676 fps=482 q=-0.0 size=N/A time=00:09:30.40 bitrate=N/A speed=20.1x    frame=13926 fps=482 q=-0.0 size=N/A time=00:09:40.83 bitrate=N/A speed=20.1x    frame=14175 fps=482 q=-0.0 size=N/A time=00:09:51.21 bitrate=N/A speed=20.1x    frame=14390 fps=481 q=-0.0 size=N/A time=00:10:00.18 bitrate=N/A speed=20.1x    frame=14661 fps=482 q=-0.0 size=N/A time=00:10:11.48 bitrate=N/A speed=20.1x    frame=14928 fps=482 q=-0.0 size=N/A time=00:10:22.62 bitrate=N/A speed=20.1x    frame=15164 fps=482 q=-0.0 size=N/A time=00:10:32.46 bitrate=N/A speed=20.1x    frame=15392 fps=481 q=-0.0 size=N/A time=00:10:41.97 bitrate=N/A speed=20.1x    frame=15613 fps=481 q=-0.0 size=N/A time=00:10:51.19 bitrate=N/A speed=  20x    frame=15854 fps=480 q=-0.0 size=N/A time=00:11:01.24 bitrate=N/A speed=  20x    frame=16080 fps=480 q=-0.0 size=N/A time=00:11:10.67 bitrate=N/A speed=  20x    frame=16329 fps=480 q=-0.0 size=N/A time=00:11:21.05 bitrate=N/A speed=  20x    frame=16586 fps=480 q=-0.0 size=N/A time=00:11:31.77 bitrate=N/A speed=  20x    frame=16865 fps=481 q=-0.0 size=N/A time=00:11:43.41 bitrate=N/A speed=20.1x    frame=17115 fps=481 q=-0.0 size=N/A time=00:11:53.83 bitrate=N/A speed=20.1x    frame=17371 fps=481 q=-0.0 size=N/A time=00:12:04.51 bitrate=N/A speed=20.1x    frame=17619 fps=481 q=-0.0 size=N/A time=00:12:14.85 bitrate=N/A speed=20.1x    frame=17891 fps=482 q=-0.0 size=N/A time=00:12:26.20 bitrate=N/A speed=20.1x    frame=18133 fps=482 q=-0.0 size=N/A time=00:12:36.29 bitrate=N/A speed=20.1x    frame=18390 fps=482 q=-0.0 size=N/A time=00:12:47.01 bitrate=N/A speed=20.1x    frame=18663 fps=483 q=-0.0 size=N/A time=00:12:58.40 bitrate=N/A speed=20.1x    frame=18929 fps=483 q=-0.0 size=N/A time=00:13:09.49 bitrate=N/A speed=20.1x    frame=19203 fps=483 q=-0.0 size=N/A time=00:13:20.92 bitrate=N/A speed=20.2x    frame=19470 fps=484 q=-0.0 size=N/A time=00:13:32.06 bitrate=N/A speed=20.2x    frame=19727 fps=484 q=-0.0 size=N/A time=00:13:42.78 bitrate=N/A speed=20.2x    frame=19964 fps=484 q=-0.0 size=N/A time=00:13:52.66 bitrate=N/A speed=20.2x    frame=20174 fps=483 q=-0.0 size=N/A time=00:14:01.42 bitrate=N/A speed=20.1x    frame=20389 fps=482 q=-0.0 size=N/A time=00:14:10.39 bitrate=N/A speed=20.1x    frame=20635 fps=482 q=-0.0 size=N/A time=00:14:20.65 bitrate=N/A speed=20.1x    frame=20903 fps=482 q=-0.0 size=N/A time=00:14:31.82 bitrate=N/A speed=20.1x    frame=21187 fps=483 q=-0.0 size=N/A time=00:14:43.67 bitrate=N/A speed=20.1x    frame=21465 fps=484 q=-0.0 size=N/A time=00:14:55.26 bitrate=N/A speed=20.2x    frame=21726 fps=484 q=-0.0 size=N/A time=00:15:06.15 bitrate=N/A speed=20.2x    frame=21977 fps=484 q=-0.0 size=N/A time=00:15:16.62 bitrate=N/A speed=20.2x    frame=22185 fps=483 q=-0.0 size=N/A time=00:15:25.29 bitrate=N/A speed=20.1x    frame=22448 fps=483 q=-0.0 size=N/A time=00:15:36.26 bitrate=N/A speed=20.2x    frame=22683 fps=483 q=-0.0 size=N/A time=00:15:46.07 bitrate=N/A speed=20.2x    frame=22953 fps=484 q=-0.0 size=N/A time=00:15:57.33 bitrate=N/A speed=20.2x    frame=23218 fps=484 q=-0.0 size=N/A time=00:16:08.38 bitrate=N/A speed=20.2x    frame=23472 fps=484 q=-0.0 size=N/A time=00:16:18.97 bitrate=N/A speed=20.2x    frame=23728 fps=484 q=-0.0 size=N/A time=00:16:29.65 bitrate=N/A speed=20.2x    frame=23969 fps=484 q=-0.0 size=N/A time=00:16:39.70 bitrate=N/A speed=20.2x    frame=24202 fps=484 q=-0.0 size=N/A time=00:16:49.42 bitrate=N/A speed=20.2x    frame=24454 fps=484 q=-0.0 size=N/A time=00:16:59.93 bitrate=N/A speed=20.2x    frame=24718 fps=484 q=-0.0 size=N/A time=00:17:10.94 bitrate=N/A speed=20.2x    frame=24982 fps=484 q=-0.0 size=N/A time=00:17:21.95 bitrate=N/A speed=20.2x    frame=25250 fps=485 q=-0.0 size=N/A time=00:17:33.13 bitrate=N/A speed=20.2x    frame=25519 fps=485 q=-0.0 size=N/A time=00:17:44.35 bitrate=N/A speed=20.2x    frame=25796 fps=485 q=-0.0 size=N/A time=00:17:55.90 bitrate=N/A speed=20.2x    frame=26043 fps=485 q=-0.0 size=N/A time=00:18:06.21 bitrate=N/A speed=20.2x    frame=26260 fps=485 q=-0.0 size=N/A time=00:18:15.26 bitrate=N/A speed=20.2x    frame=26501 fps=484 q=-0.0 size=N/A time=00:18:25.31 bitrate=N/A speed=20.2x    frame=26757 fps=485 q=-0.0 size=N/A time=00:18:35.98 bitrate=N/A speed=20.2x    frame=27019 fps=485 q=-0.0 size=N/A time=00:18:46.91 bitrate=N/A speed=20.2x    frame=27265 fps=485 q=-0.0 size=N/A time=00:18:57.17 bitrate=N/A speed=20.2x    frame=27536 fps=485 q=-0.0 size=N/A time=00:19:08.48 bitrate=N/A speed=20.2x    frame=27781 fps=485 q=-0.0 size=N/A time=00:19:18.69 bitrate=N/A speed=20.2x    frame=28047 fps=485 q=-0.0 size=N/A time=00:19:29.79 bitrate=N/A speed=20.2x    frame=28297 fps=485 q=-0.0 size=N/A time=00:19:40.22 bitrate=N/A speed=20.2x    frame=28567 fps=486 q=-0.0 size=N/A time=00:19:51.48 bitrate=N/A speed=20.3x    frame=28826 fps=486 q=-0.0 size=N/A time=00:20:02.28 bitrate=N/A speed=20.3x    frame=29085 fps=486 q=-0.0 size=N/A time=00:20:13.08 bitrate=N/A speed=20.3x    frame=29338 fps=486 q=-0.0 size=N/A time=00:20:23.63 bitrate=N/A speed=20.3x    frame=29574 fps=486 q=-0.0 size=N/A time=00:20:33.48 bitrate=N/A speed=20.3x    frame=29843 fps=486 q=-0.0 size=N/A time=00:20:44.70 bitrate=N/A speed=20.3x    frame=30115 fps=486 q=-0.0 size=N/A time=00:20:56.04 bitrate=N/A speed=20.3x    frame=30361 fps=486 q=-0.0 size=N/A time=00:21:06.30 bitrate=N/A speed=20.3x    frame=30620 fps=486 q=-0.0 size=N/A time=00:21:17.10 bitrate=N/A speed=20.3x    frame=30870 fps=486 q=-0.0 size=N/A time=00:21:27.53 bitrate=N/A speed=20.3x    frame=31131 fps=487 q=-0.0 size=N/A time=00:21:38.42 bitrate=N/A speed=20.3x    frame=31375 fps=487 q=-0.0 size=N/A time=00:21:48.59 bitrate=N/A speed=20.3x    frame=31633 fps=487 q=-0.0 size=N/A time=00:21:59.35 bitrate=N/A speed=20.3x    frame=31874 fps=486 q=-0.0 size=N/A time=00:22:09.41 bitrate=N/A speed=20.3x    frame=32107 fps=486 q=-0.0 size=N/A time=00:22:19.12 bitrate=N/A speed=20.3x    frame=32350 fps=486 q=-0.0 size=N/A time=00:22:29.26 bitrate=N/A speed=20.3x    frame=32595 fps=486 q=-0.0 size=N/A time=00:22:39.48 bitrate=N/A speed=20.3x    frame=32852 fps=486 q=-0.0 size=N/A time=00:22:50.20 bitrate=N/A speed=20.3x    frame=33107 fps=486 q=-0.0 size=N/A time=00:23:00.83 bitrate=N/A speed=20.3x    frame=33374 fps=486 q=-0.0 size=N/A time=00:23:11.97 bitrate=N/A speed=20.3x    frame=33654 fps=487 q=-0.0 size=N/A time=00:23:23.65 bitrate=N/A speed=20.3x    frame=33918 fps=487 q=-0.0 size=N/A time=00:23:34.66 bitrate=N/A speed=20.3x    frame=34147 fps=487 q=-0.0 size=N/A time=00:23:44.21 bitrate=N/A speed=20.3x    [Parsed_ssim_10 @ 000001897cca8e40] SSIM Y:0.994712 (22.767342) U:0.994534 (22.623072) V:0.994757 (22.804123) All:0.994690 (22.749036)
[out#0/null @ 000001897c33ffc0] video:14749KiB audio:268452KiB subtitle:0KiB other streams:0KiB global headers:0KiB muxing overhead: unknown
frame=34324 fps=487 q=-0.0 Lsize=N/A time=00:23:51.59 bitrate=N/A speed=20.3x    
